G04*
G04 #@! TF.GenerationSoftware,Altium Limited,Altium Designer,20.0.13 (296)*
G04*
G04 Layer_Color=65535*
%FSLAX25Y25*%
%MOIN*%
G70*
G01*
G75*
%ADD10C,0.00787*%
%ADD11C,0.01000*%
%ADD12R,0.06299X0.01575*%
D10*
X26772Y21358D02*
Y35138D01*
X20472D02*
X26772D01*
X20472Y21358D02*
Y35138D01*
Y21358D02*
X26772D01*
X19291Y45965D02*
X27953D01*
X19291D02*
Y60138D01*
X27953D01*
Y45965D02*
Y60138D01*
X43618Y37244D02*
X49618D01*
Y47244D01*
X43618D02*
X49618D01*
X43618Y52244D02*
X66618D01*
X43618Y32244D02*
Y52244D01*
Y32244D02*
X66618D01*
Y52244D01*
X11810Y11416D02*
X8661D01*
Y9054D01*
X10236D01*
X8661D01*
Y6693D01*
X13384Y9842D02*
Y6693D01*
Y8267D01*
X14171Y9054D01*
X14959Y9842D01*
X15746D01*
X18894D02*
X20469D01*
X21256Y9054D01*
Y6693D01*
X18894D01*
X18107Y7480D01*
X18894Y8267D01*
X21256D01*
X22830Y6693D02*
Y9842D01*
X25192D01*
X25979Y9054D01*
Y6693D01*
X27553D02*
Y11416D01*
Y8267D02*
X29914Y9842D01*
X27553Y8267D02*
X29914Y6693D01*
X40147Y10629D02*
X39360Y11416D01*
X37786D01*
X36999Y10629D01*
Y7480D01*
X37786Y6693D01*
X39360D01*
X40147Y7480D01*
Y9054D01*
X38573D01*
X42509Y6693D02*
X44083D01*
X44870Y7480D01*
Y9054D01*
X44083Y9842D01*
X42509D01*
X41722Y9054D01*
Y7480D01*
X42509Y6693D01*
X46444D02*
Y9842D01*
X48806D01*
X49593Y9054D01*
Y6693D01*
X51167Y9842D02*
X54316D01*
X51167Y6693D01*
X54316D01*
X56677Y9842D02*
X58252D01*
X59039Y9054D01*
Y6693D01*
X56677D01*
X55890Y7480D01*
X56677Y8267D01*
X59039D01*
X60613Y6693D02*
X62187D01*
X61400D01*
Y11416D01*
X60613D01*
X66910Y6693D02*
X65336D01*
X64549Y7480D01*
Y9054D01*
X65336Y9842D01*
X66910D01*
X67697Y9054D01*
Y8267D01*
X64549D01*
X69272Y9842D02*
X72420D01*
X69272Y6693D01*
X72420D01*
X38189Y36220D02*
X41338D01*
X38189Y47637D02*
X41338D01*
X39763Y49212D02*
Y46063D01*
D11*
X69118Y46244D02*
X71118D01*
X70118D01*
Y52242D01*
X69118Y51243D01*
X7812Y50151D02*
Y56149D01*
X10811D01*
X11811Y55149D01*
Y53150D01*
X10811Y52150D01*
X7812D01*
X9812D02*
X11811Y50151D01*
X13810D02*
X15810D01*
X14810D01*
Y56149D01*
X13810Y55149D01*
X48267Y62192D02*
X46268D01*
X47267D01*
Y57194D01*
X46268Y56194D01*
X45268D01*
X44268Y57194D01*
X50266Y56194D02*
X52266D01*
X51266D01*
Y62192D01*
X50266Y61193D01*
X7812Y30558D02*
Y24560D01*
X10811D01*
X11811Y25560D01*
Y29558D01*
X10811Y30558D01*
X7812D01*
X13810Y24560D02*
X15810D01*
X14810D01*
Y30558D01*
X13810Y29558D01*
D12*
X23622Y22146D02*
D03*
M02*
